<?xml version="1.0" encoding="UTF-8"?> <svg xmlns="http://www.w3.org/2000/svg" width="520" height="120"><path d="M 29.743 36.168 C 23.594 36.077 17.678 38.518 13.383 42.918 C 8.956 47.196 6.495 53.113 6.583 59.268 C 6.583 65.608 8.853 71.048 13.383 75.568 C 17.661 79.999 23.584 82.46 29.743 82.368 C 36.113 82.368 41.573 80.108 46.103 75.568 C 50.504 71.299 52.943 65.399 52.843 59.268 C 52.843 52.868 50.593 47.408 46.103 42.918 C 41.807 38.518 35.891 36.077 29.743 36.168 M 52.843 78.178 C 46.363 85.328 38.663 88.908 29.743 88.908 C 21.84 89.036 14.234 85.904 8.713 80.248 C 3.037 74.757 -0.115 67.164 0.003 59.268 C 0.003 51.068 2.903 44.068 8.703 38.298 C 14.523 32.498 21.523 29.588 29.743 29.588 C 37.953 29.588 44.963 32.488 50.773 38.288 C 56.455 43.773 59.606 51.371 59.473 59.268 L 59.473 89.328 C 59.473 95.418 57.273 100.708 52.843 105.208 C 46.918 111.316 38.73 114.7 30.223 114.558 C 21.728 114.709 13.552 111.322 7.653 105.208 C 5.432 103.122 3.549 100.703 2.073 98.038 C 1.683 97.368 1.493 96.708 1.493 96.078 C 1.493 95.158 1.803 94.378 2.443 93.738 C 3.083 93.098 3.863 92.778 4.783 92.778 C 5.687 92.772 6.555 93.137 7.183 93.788 C 7.453 94.038 7.703 94.378 7.913 94.798 C 9.111 96.918 10.591 98.865 12.313 100.588 C 14.649 102.975 17.446 104.863 20.533 106.138 C 23.612 107.376 26.904 107.998 30.223 107.968 C 37.223 107.968 43.213 105.498 48.173 100.538 C 51.283 96.778 52.843 93.038 52.843 89.338 Z M 97.713 36.168 C 91.554 36.078 85.633 38.54 81.353 42.968 C 76.925 47.249 74.464 53.17 74.553 59.328 C 74.465 65.483 76.926 71.4 81.353 75.678 C 85.633 80.107 91.554 82.568 97.713 82.478 C 104.093 82.478 109.533 80.218 114.073 75.678 C 118.573 71.178 120.823 65.738 120.823 59.328 C 120.823 52.928 118.573 47.468 114.073 42.968 C 109.792 38.54 103.871 36.078 97.713 36.168 M 127.453 59.328 C 127.453 67.528 124.553 74.548 118.753 80.358 C 113.241 86.039 105.626 89.188 97.713 89.058 C 89.513 89.058 82.493 86.158 76.693 80.358 C 71.008 74.853 67.855 67.241 67.983 59.328 C 67.983 51.118 70.883 44.108 76.683 38.298 C 82.483 32.498 89.503 29.588 97.713 29.588 C 105.933 29.588 112.933 32.488 118.743 38.288 C 124.426 43.798 127.578 51.413 127.453 59.328 M 165.693 36.168 C 159.534 36.077 153.612 38.539 149.333 42.968 C 144.904 47.248 142.443 53.17 142.533 59.328 C 142.445 65.483 144.906 71.4 149.333 75.678 C 153.611 80.109 159.534 82.57 165.693 82.478 C 171.851 82.568 177.772 80.107 182.053 75.678 C 186.553 71.178 188.793 65.738 188.793 59.328 C 188.793 52.928 186.543 47.468 182.053 42.968 C 177.772 38.54 171.851 36.078 165.693 36.168 M 195.423 59.328 C 195.423 67.528 192.523 74.548 186.723 80.358 C 181.215 86.038 173.603 89.187 165.693 89.058 C 157.473 89.058 150.473 86.158 144.663 80.358 C 138.98 74.852 135.827 67.24 135.953 59.328 C 135.953 51.118 138.853 44.108 144.663 38.298 C 150.463 32.498 157.473 29.588 165.693 29.588 C 173.903 29.588 180.913 32.488 186.723 38.288 C 192.523 44.108 195.423 51.118 195.423 59.328 M 256.763 59.328 C 256.763 52.928 254.513 47.468 250.013 42.968 C 245.737 38.538 239.818 36.076 233.663 36.168 C 227.507 36.08 221.59 38.541 217.313 42.968 C 212.884 47.248 210.423 53.17 210.513 59.328 C 210.425 65.483 212.886 71.4 217.313 75.678 C 221.589 80.106 227.507 82.568 233.663 82.478 C 240.043 82.478 245.493 80.218 250.013 75.678 C 254.513 71.178 256.763 65.738 256.763 59.328 M 256.763 7.388 C 256.763 6.468 257.093 5.688 257.753 5.048 C 258.403 4.408 259.193 4.098 260.113 4.098 C 261.033 4.098 261.813 4.408 262.443 5.048 C 263.083 5.688 263.403 6.468 263.403 7.388 L 263.403 59.328 C 263.403 67.528 260.503 74.548 254.703 80.358 C 249.191 86.039 241.576 89.188 233.663 89.058 C 225.453 89.058 218.443 86.158 212.643 80.358 C 206.958 74.853 203.805 67.241 203.933 59.328 C 203.933 51.118 206.833 44.108 212.633 38.298 C 218.433 32.498 225.453 29.588 233.663 29.588 C 241.883 29.588 248.883 32.488 254.693 38.288 L 256.763 40.368 Z M 319.543 53.808 C 318.943 51.858 318.043 50.078 316.853 48.468 C 314.515 45.282 311.249 42.896 307.503 41.638 C 303.69 40.36 299.565 40.36 295.753 41.638 C 293.868 42.26 292.091 43.167 290.483 44.328 C 288.892 45.477 287.498 46.875 286.353 48.468 C 285.183 50.084 284.303 51.891 283.753 53.808 Z M 317.143 72.338 C 320.235 72.232 322.773 74.765 322.673 77.858 C 322.673 79.418 322.143 80.738 321.073 81.848 C 315.73 86.606 308.795 89.183 301.643 89.068 C 293.423 89.068 286.423 86.168 280.613 80.358 C 274.931 74.851 271.778 67.24 271.903 59.328 C 271.903 51.118 274.803 44.108 280.603 38.298 C 286.423 32.498 293.423 29.598 301.643 29.598 C 309.783 29.598 316.793 32.498 322.673 38.298 C 325.475 41.017 327.696 44.276 329.203 47.878 C 330.676 51.514 331.417 55.405 331.383 59.328 C 331.411 62.412 328.886 64.91 325.803 64.848 L 283.743 64.848 C 284.908 68.66 287.285 71.988 290.513 74.328 C 292.1 75.479 293.854 76.383 295.713 77.008 C 297.613 77.648 299.593 77.968 301.643 77.968 C 303.983 77.968 306.123 77.618 308.073 76.908 C 310.023 76.198 311.813 75.138 313.473 73.718 C 314.504 72.849 315.804 72.362 317.153 72.338 M 369.613 40.688 C 366.993 40.688 364.553 41.188 362.283 42.168 C 357.842 44.091 354.314 47.651 352.433 52.108 C 351.462 54.391 350.968 56.848 350.983 59.328 C 350.983 61.878 351.473 64.288 352.433 66.548 C 353.365 68.755 354.709 70.764 356.393 72.468 C 358.083 74.167 360.082 75.528 362.283 76.478 C 364.596 77.479 367.092 77.986 369.613 77.968 C 372.203 77.968 374.633 77.468 376.893 76.478 C 381.347 74.55 384.892 70.985 386.793 66.518 C 387.772 64.248 388.269 61.8 388.253 59.328 C 388.253 56.778 387.773 54.378 386.793 52.128 C 384.89 47.663 381.346 44.098 376.893 42.168 C 374.596 41.173 372.116 40.669 369.613 40.688 M 388.253 83.538 L 388.253 82.478 C 385.656 84.57 382.734 86.222 379.603 87.368 C 376.395 88.519 373.01 89.094 369.603 89.068 C 361.403 89.068 354.393 86.168 348.593 80.358 C 342.91 74.852 339.757 67.24 339.883 59.328 C 339.883 51.118 342.783 44.108 348.583 38.298 C 354.383 32.498 361.403 29.588 369.613 29.588 C 377.763 29.588 384.763 32.488 390.643 38.288 C 396.327 43.798 399.48 51.413 399.353 59.328 L 399.353 83.538 C 399.376 85.006 398.789 86.419 397.733 87.438 C 396.713 88.496 395.302 89.086 393.833 89.068 C 392.346 89.096 390.913 88.51 389.873 87.448 C 388.818 86.427 388.231 85.016 388.253 83.548 M 455.943 113.658 C 453.133 113.664 451.37 110.627 452.769 108.19 C 452.932 107.908 453.131 107.648 453.363 107.418 L 503.963 56.818 L 453.363 6.238 C 451.373 4.252 452.279 0.857 454.994 0.126 C 456.254 -0.213 457.599 0.146 458.523 1.068 L 511.713 54.238 C 513.127 55.671 513.127 57.975 511.713 59.408 L 458.523 112.578 C 457.843 113.27 456.913 113.659 455.943 113.658" style="fill: #708082"></path></svg> 