<?xml version="1.0" encoding="UTF-8"?>
<svg id="Vrstva_1" xmlns="http://www.w3.org/2000/svg" width="33.9mm" height="33.9mm" version="1.1" viewBox="0 0 96 96">
  <!-- Generator: Adobe Illustrator 29.1.0, SVG Export Plug-In . SVG Version: 2.1.0 Build 142)  -->
  <defs>
    <style>
      .st0 {
        fill: #ffd200;
      }

      .st1 {
        fill: #e00700;
      }
    </style>
  </defs>
  <rect class="st1" x="8" y="8" width="39.2" height="80"/>
  <rect class="st1" x="48.8" y="8" width="39.2" height="80"/>
  <path class="st0" d="M67.1,21.8l1.2-3.9,1.2,3.9h-2.5ZM69.1,16h-1.6l-3.2,9.5h1.6l.8-2.3h3.3l.8,2.3h1.6l-3.2-9.5Z"/>
  <polygon class="st0" points="76.5 43.6 76.5 34.1 82.2 34.1 82.2 35.5 78.1 35.5 78.1 38.2 81.6 38.2 81.6 39.5 78.1 39.5 78.1 42.3 82.2 42.3 82.2 43.6 76.5 43.6"/>
  <polygon class="st0" points="53.1 25.5 53.1 16 54.6 16 54.6 19.9 58.8 19.9 58.8 16 60.3 16 60.3 25.5 58.8 25.5 58.8 21.2 54.6 21.2 54.6 25.5 53.1 25.5"/>
  <path class="st0" d="M37.8,21.8l1.2-3.9,1.2,3.9h-2.5ZM39.9,16h-1.6l-3.2,9.5h1.6l.8-2.3h3.3l.8,2.3h1.6l-3.2-9.5Z"/>
  <path class="st0" d="M67.1,58.1l1.2-3.9,1.2,3.9h-2.5ZM69.1,52.3h-1.6l-3.2,9.5h1.6l.8-2.3h3.3l.8,2.3h1.6l-3.2-9.5Z"/>
  <path class="st0" d="M28.3,20.4h-1.3v-3.1h1.3c1,0,1.8.4,1.8,1.6s-.8,1.6-1.8,1.6M30.1,21.4c1-.4,1.7-1.3,1.7-2.6,0-1.8-1.5-2.9-3.3-2.9h-3v9.5h1.6v-3.7h1.6l1.8,3.7h1.8l-2-4Z"/>
  <path class="st0" d="M37.8,39.9l1.2-3.9,1.2,3.9h-2.5ZM39.9,34.1h-1.6l-3.2,9.5h1.6l.8-2.3h3.3l.8,2.3h1.6l-3.2-9.5Z"/>
  <g>
    <path class="st0" d="M18.4,20.7h-1.3v-3.3h1.3c1,0,1.8.4,1.8,1.7s-.8,1.7-1.8,1.7M18.5,16h-3v9.5h1.6v-3.5h1.4c1.9,0,3.3-1.2,3.3-3s-1.4-3-3.3-3"/>
    <path class="st0" d="M28.3,38.6h-1.3v-3.1h1.3c1,0,1.8.4,1.8,1.6s-.8,1.6-1.8,1.6M30.1,39.6c1-.4,1.7-1.3,1.7-2.6,0-1.8-1.5-2.9-3.3-2.9h-3v9.5h1.6v-3.7h1.6l1.8,3.7h1.8l-2-4Z"/>
  </g>
  <path class="st0" d="M37.8,58.1l1.2-3.9,1.2,3.9h-2.5ZM39.9,52.3h-1.6l-3.2,9.5h1.6l.8-2.3h3.3l.8,2.3h1.6l-3.2-9.5Z"/>
  <g>
    <path class="st0" d="M18.4,38.8h-1.3v-3.3h1.3c1,0,1.8.4,1.8,1.7s-.8,1.7-1.8,1.7M18.5,34.1h-3v9.5h1.6v-3.5h1.4c1.9,0,3.3-1.2,3.3-3s-1.4-3-3.3-3"/>
    <path class="st0" d="M28.3,56.8h-1.3v-3.1h1.3c1,0,1.8.4,1.8,1.6s-.8,1.6-1.8,1.6M30.1,57.8c1-.4,1.7-1.3,1.7-2.6,0-1.8-1.5-2.9-3.3-2.9h-3v9.5h1.6v-3.7h1.6l1.8,3.7h1.8l-2-4Z"/>
  </g>
  <path class="st0" d="M37.9,76.4l1.2-3.9,1.2,3.9h-2.5ZM39.9,70.6h-1.6l-3.2,9.5h1.6l.8-2.3h3.3l.8,2.3h1.6l-3.2-9.5Z"/>
  <g>
    <path class="st0" d="M18.4,57h-1.3v-3.3h1.3c1,0,1.8.4,1.8,1.7s-.8,1.7-1.8,1.7M18.5,52.3h-3v9.5h1.6v-3.5h1.4c1.9,0,3.3-1.2,3.3-3s-1.4-3-3.3-3"/>
    <path class="st0" d="M28.3,75.1h-1.3v-3.1h1.3c1,0,1.8.4,1.8,1.6s-.8,1.6-1.8,1.6M30.1,76c1-.4,1.7-1.3,1.7-2.6,0-1.8-1.5-2.9-3.3-2.9h-3v9.5h1.6v-3.7h1.6l1.8,3.7h1.8l-2-4Z"/>
    <path class="st0" d="M18.4,75.3h-1.3v-3.3h1.3c1,0,1.8.4,1.8,1.7s-.8,1.7-1.8,1.7M18.6,70.6h-3v9.5h1.6v-3.5h1.4c1.9,0,3.3-1.2,3.3-3s-1.5-3-3.3-3"/>
    <path class="st0" d="M60.4,72.2c-.6-.2-1.6-.4-2.8-.4s-3.2.9-3.2,3.5,1.6,3.6,3.2,3.6,1.3-.1,1.6-.2v-2.6h-2.1v-1.3h3.6v4.8c-.8.4-1.8.7-3,.7-2.8,0-4.9-1.6-4.9-4.9s2.1-4.8,4.9-4.8,2.2.2,2.8.4v1.3Z"/>
    <path class="st0" d="M60.4,54c-.6-.2-1.6-.4-2.8-.4s-3.2.9-3.2,3.5,1.6,3.6,3.2,3.6,1.3-.1,1.6-.2v-2.6h-2.1v-1.3h3.6v4.8c-.8.4-1.8.7-3,.7-2.8,0-4.9-1.6-4.9-4.9s2.1-4.8,4.9-4.8,2.2.2,2.8.4v1.3Z"/>
    <path class="st0" d="M60.4,35.8c-.6-.2-1.6-.4-2.8-.4s-3.2.9-3.2,3.5,1.6,3.6,3.2,3.6,1.3-.1,1.6-.2v-2.6h-2.1v-1.3h3.6v4.8c-.8.4-1.8.7-3,.7-2.8,0-4.9-1.6-4.9-4.9s2.1-4.8,4.9-4.8,2.2.2,2.8.4v1.3Z"/>
    <path class="st0" d="M68.6,43.7c-2.5,0-3.7-1.5-3.7-3.8v-5.8h1.6v5.8c0,1.6.7,2.5,2.1,2.5s2.1-.9,2.1-2.5v-5.8h1.6v5.8c0,2.3-1.1,3.8-3.7,3.8"/>
  </g>
  <metadata>
    <sfw xmlns="http://ns.adobe.com/SaveForWeb/1.0/">
      <slices/>
      <sliceSourceBounds x="8" y="8" width="80" height="80" bottomLeftOrigin="true"/>
    </sfw>
  </metadata>
</svg>